# xmcd
#
# Track frame offsets:
#	150
#	15261
#	28628
#	44786
#	60890
#	75186
#	89453
#	103917
#	117934
#	133207
#	146559
#	165239
#
# Disc length: 2382 seconds
#
# Revision: 0
# Processed by: cddbd v1.5.1PL0 Copyright (c) Steve Scherf et al.
# Submitted via: dBpowerAMP V4.0
#
DISCID=91094c0c
DTITLE=Chalino Sánchez - Colección De Oro Vol.1 Norteño
DYEAR=1900
DGENRE=Latin
TTITLE0=Corazoncito Tirano
TTITLE1=Alma Enamorada
TTITLE2=Nieves De Enero
TTITLE3=Me Persigue Tu Sombra
TTITLE4=Una Tarde
TTITLE5=El Navegante
TTITLE6=Carta De Luto
TTITLE7=Cuatro Espadas
TTITLE8=Prenda Del Alma
TTITLE9=Florita Del Alma
TTITLE10=María De La Luz
TTITLE11=Los Chismes
EXTD=
EXTT0=
EXTT1=
EXTT2=
EXTT3=
EXTT4=
EXTT5=
EXTT6=
EXTT7=
EXTT8=
EXTT9=
EXTT10=
EXTT11=
PLAYORDER=
